<svg width="20" height="20" viewBox="0 0 20 20" fill="none" xmlns="http://www.w3.org/2000/svg">
<path fill-rule="evenodd" clip-rule="evenodd" d="M10 3.125C6.20304 3.125 3.125 6.20304 3.125 10C3.125 13.797 6.20304 16.875 10 16.875C13.797 16.875 16.875 13.797 16.875 10C16.875 6.20304 13.797 3.125 10 3.125ZM1.875 10C1.875 5.51269 5.51269 1.875 10 1.875C14.4873 1.875 18.125 5.51269 18.125 10C18.125 14.4873 14.4873 18.125 10 18.125C5.51269 18.125 1.875 14.4873 1.875 10Z" fill="white"/>
<path fill-rule="evenodd" clip-rule="evenodd" d="M10 6.875C8.61929 6.875 7.5 7.99429 7.5 9.375C7.5 10.7557 8.61929 11.875 10 11.875C11.3807 11.875 12.5 10.7557 12.5 9.375C12.5 7.99429 11.3807 6.875 10 6.875ZM6.25 9.375C6.25 7.30393 7.92893 5.625 10 5.625C12.0711 5.625 13.75 7.30393 13.75 9.375C13.75 11.4461 12.0711 13.125 10 13.125C7.92893 13.125 6.25 11.4461 6.25 9.375Z" fill="white"/>
<path fill-rule="evenodd" clip-rule="evenodd" d="M10 13.1244C9.07666 13.1244 8.17135 13.3801 7.38442 13.8631C6.59748 14.3461 5.95967 15.0376 5.54168 15.8609C5.38542 16.1687 5.00924 16.2915 4.70145 16.1353C4.39367 15.979 4.27084 15.6028 4.4271 15.2951C4.94959 14.2659 5.74685 13.4015 6.73052 12.7978C7.71418 12.194 8.84583 11.8744 10 11.8744C11.1542 11.8744 12.2858 12.194 13.2695 12.7978C14.2532 13.4015 15.0504 14.2659 15.5729 15.2951C15.7292 15.6028 15.6064 15.979 15.2986 16.1353C14.9908 16.2915 14.6146 16.1687 14.4583 15.8609C14.0404 15.0376 13.4025 14.3461 12.6156 13.8631C11.8287 13.3801 10.9234 13.1244 10 13.1244Z" fill="white"/>
</svg>
