<svg width="24" height="25" viewBox="0 0 24 25" fill="none" xmlns="http://www.w3.org/2000/svg">
<path d="M6 7.44922L2 12.4492M2 12.4492L6 17.4492M2 12.4492H11" stroke="#ffffff" stroke-linecap="round" stroke-linejoin="round"/>
<path d="M10 8.58115V7.83773C10 6.21938 10 5.41021 10.474 4.85072C10.9479 4.29123 11.7461 4.15821 13.3424 3.89215L15.0136 3.61362C18.2567 3.0731 19.8782 2.80284 20.9391 3.70154C22 4.60024 22 6.24415 22 9.53198V15.3665C22 18.6543 22 20.2982 20.9391 21.1969C19.8782 22.0956 18.2567 21.8253 15.0136 21.2848L13.3424 21.0063C11.7461 20.7402 10.9479 20.6072 10.474 20.0477C10 19.4882 10 18.6791 10 17.0607V16.5152" stroke="#ffffff" stroke-linecap="round" stroke-linejoin="round"/>
</svg>
