<svg width="24" height="25" viewBox="0 0 24 25" fill="none" xmlns="http://www.w3.org/2000/svg">
<path d="M7 7.58115V7.06126C7 4.91536 7 3.84241 7.6896 3.24433C8.37919 2.64625 9.44136 2.79798 11.5657 3.10146L15.8485 3.71329C18.3047 4.06417 19.5327 4.23961 20.2664 5.0855C21 5.93139 21 7.17192 21 9.65299V15.2454C21 17.7265 21 18.967 20.2664 19.8129C19.5327 20.6588 18.3047 20.8343 15.8485 21.1851L11.5657 21.797C9.44136 22.1005 8.37919 22.2522 7.6896 21.6541C7 21.056 7 19.9831 7 17.8372V17.5152" stroke="#ffffff" stroke-linecap="round" stroke-linejoin="round"/>
<path d="M12 7.44922L16 12.4492M16 12.4492L12 17.4492M16 12.4492H4" stroke="#ffffff" stroke-linecap="round" stroke-linejoin="round"/>
</svg>
